<svg width="471" height="964" viewBox="0 0 471 964" fill="none" xmlns="http://www.w3.org/2000/svg">
<path d="M52.831 748V216.694H252.071C292.887 216.694 327.132 224.303 354.804 239.523C382.649 254.743 403.663 275.67 417.845 302.304C432.2 328.766 439.377 358.86 439.377 392.585C439.377 426.656 432.2 456.923 417.845 483.384C403.49 509.846 382.303 530.687 354.285 545.906C326.267 560.953 291.763 568.477 250.774 568.477H118.725V489.351H237.802C261.67 489.351 281.213 485.2 296.433 476.899C311.653 468.597 322.894 457.182 330.158 442.654C337.595 428.127 341.314 411.437 341.314 392.585C341.314 373.733 337.595 357.13 330.158 342.775C322.894 328.42 311.566 317.265 296.174 309.309C280.954 301.18 261.324 297.116 237.284 297.116H149.078V748H52.831Z" fill="#CC8E51"/>
<path d="M85.6444 748V234.39H243.89C276.493 234.39 304.413 241.078 327.653 254.453C351.06 267.828 369.033 286.136 381.572 309.375C394.111 332.615 400.381 359.114 400.381 388.874C400.381 418.3 394.111 444.632 381.572 467.872C369.033 491.111 351.06 509.502 327.653 523.045C304.413 536.42 276.576 543.108 244.141 543.108H107.714V514.017H243.389C269.805 514.017 292.376 508.666 311.101 497.966C329.826 487.099 344.205 472.302 354.236 453.577C364.268 434.685 369.284 413.117 369.284 388.874C369.284 364.464 364.268 342.813 354.236 323.921C344.205 305.028 329.743 290.232 310.85 279.531C292.125 268.831 269.554 263.481 243.138 263.481H116.993V748H85.6444Z" fill="#252525"/>
<rect x="149" y="488" width="103" height="82" fill="#252525"/>
<rect x="117" y="488" width="32" height="82" fill="#CC8E51"/>
<rect x="236" y="489" width="19" height="80" fill="#CC8E51"/>
<rect x="210.629" y="390.889" width="25.5368" height="217.47" transform="rotate(45 210.629 390.889)" fill="#CC8E51"/>
<rect x="268.578" y="388.114" width="26.0848" height="67.5148" transform="rotate(45 268.578 388.114)" fill="#CC8E51"/>
<rect x="193.312" y="408.498" width="25.5259" height="62.8398" transform="rotate(-45 193.312 408.498)" fill="#CC8E51"/>
<rect x="196" y="484" width="16" height="90" rx="3" fill="#CC8E51"/>
<rect x="176" y="493" width="16" height="73" rx="3" fill="#CC8E51"/>
<rect x="252" y="521" width="16" height="36" transform="rotate(90 252 521)" fill="#CC8E51"/>
<rect x="117" y="720" width="28" height="32" transform="rotate(90 117 720)" fill="#CC8E51"/>
<line x1="168" y1="539" x2="168" y2="519" stroke="#CC8E51" stroke-width="8"/>
<line x1="114.172" y1="529.314" x2="166.172" y2="477.314" stroke="#252525" stroke-width="8"/>
<line x1="104.199" y1="491.144" x2="156.199" y2="440.144" stroke="#252525" stroke-width="8"/>
<path d="M300.1 417.74L314.597 361.526C314.789 360.787 314.116 360.114 313.377 360.306L257.163 374.803C256.415 374.998 256.162 375.931 256.708 376.478L298.425 418.195C298.972 418.742 299.905 418.488 300.1 417.74Z" fill="#CC8E51"/>
</svg>
